<svg width="119" height="38" viewBox="0 0 119 38" fill="none" xmlns="http://www.w3.org/2000/svg">
  <g clip-path="url(#clip0_1163_108276)">
    <path d="M4.92232 36.6974L0.064021 21.301C-0.167021 20.5694 0.237302 19.7928 0.968936 19.5554C1.10371 19.5105 1.2449 19.4912 1.39251 19.4912H3.45906C4.06233 19.4912 4.60143 19.8827 4.78113 20.4603L6.34066 25.3764C6.57171 26.108 7.35468 26.5123 8.08631 26.2813C8.51631 26.1465 8.85645 25.7999 8.99123 25.3699L10.4866 20.4796C10.6663 19.8955 11.2054 19.4976 11.8151 19.4976H13.9458C14.5555 19.4976 15.0946 19.8955 15.2743 20.4731L16.7953 25.3956C17.0199 26.1273 17.8029 26.538 18.5345 26.3134C18.971 26.1786 19.3111 25.8384 19.4459 25.4085L21.0118 20.4667C21.1915 19.8891 21.7306 19.4976 22.3339 19.4976H24.4005C25.1642 19.4976 25.7867 20.1202 25.7867 20.8839C25.7867 21.0251 25.7675 21.1663 25.7225 21.301L20.8321 36.7038C20.646 37.2814 20.1133 37.6729 19.5101 37.6729H17.1162C16.5065 37.6729 15.9674 37.275 15.7877 36.6974L14.2153 31.6017C13.9907 30.87 13.2142 30.4529 12.4825 30.6775C12.0397 30.8123 11.6931 31.1588 11.5584 31.6017L10.0052 36.6846C9.82555 37.2686 9.28645 37.6665 8.67675 37.6665H6.25081C5.64754 37.6665 5.10844 37.275 4.92874 36.6974" fill="#14213D"/>
    <path d="M40.676 21.8718V20.7486C40.676 20.0555 41.2407 19.4907 41.9338 19.4907H44.6614C45.4251 19.4907 46.0477 20.1133 46.0477 20.877V36.2798C46.0477 37.0435 45.4251 37.666 44.6614 37.666H41.9338C41.2407 37.666 40.676 37.1013 40.676 36.4082V35.285C40.1369 36.8702 38.0061 37.9934 35.2657 37.9934C32.8269 38.0447 30.4844 37.0628 28.8094 35.285C27.1151 33.4688 26.1973 31.0621 26.2487 28.5784C26.1909 26.1075 27.1087 23.7073 28.8094 21.9103C30.4652 20.1133 32.8205 19.1121 35.2657 19.1698C38.0061 19.1698 40.1369 20.2866 40.676 21.8782M39.5913 31.8322C40.4963 30.9979 41.0097 29.817 40.9968 28.5848C41.0161 27.359 40.5027 26.191 39.5913 25.3759C38.7057 24.4838 37.4927 24.0025 36.2348 24.041C35.0026 24.0089 33.8153 24.4967 32.9553 25.3759C32.1916 26.0947 31.7231 27.0766 31.6396 28.1227C31.492 29.7336 32.1916 31.306 33.488 32.2751C34.2902 32.8463 35.2529 33.1479 36.2348 33.1286C37.4799 33.1607 38.6928 32.6922 39.5913 31.8322Z" fill="#14213D"/>
    <path d="M63.2477 18.6311V13.9204C63.2477 13.1567 63.8703 12.5342 64.634 12.5342H67.2332C67.9969 12.5342 68.6195 13.1567 68.6195 13.9204V36.2802C68.6195 37.0439 67.9969 37.6664 67.2332 37.6664H64.5056C63.8125 37.6664 63.2477 37.1016 63.2477 36.4085V35.2918C62.7086 36.877 60.5779 38.0001 57.8375 38.0001C55.3987 38.0515 53.0562 37.0696 51.3812 35.2918C49.6868 33.4756 48.7691 31.0689 48.8204 28.5852C48.7627 26.1079 49.6804 23.714 51.3812 21.9106C53.037 20.1136 55.3923 19.1125 57.8375 19.1702C59.0312 19.1445 60.2121 19.3948 61.2967 19.889C61.9834 20.2099 62.7985 19.9083 63.1194 19.2216C63.2028 19.0354 63.2477 18.8365 63.2477 18.6311ZM62.1631 31.8262C63.068 30.9919 63.5815 29.811 63.5686 28.5788C63.5879 27.353 63.0745 26.1849 62.1631 25.3698C61.2775 24.4778 60.0581 23.9964 58.8066 24.0349C57.5744 24.0029 56.3871 24.4906 55.5271 25.3698C54.7634 26.0886 54.2949 27.0706 54.2114 28.1167C54.0638 29.7276 54.7634 31.2999 56.0598 32.269C56.862 32.8402 57.8247 33.1418 58.8066 33.1226C60.0516 33.1547 61.2646 32.6862 62.1631 31.8262Z" fill="#14213D"/>
    <path d="M85.8254 18.6311V13.9204C85.8254 13.1567 86.4479 12.5342 87.2116 12.5342H89.8108C90.5746 12.5342 91.1971 13.1567 91.1971 13.9204V36.2802C91.1971 37.0439 90.5746 37.6664 89.8108 37.6664H87.0833C86.3901 37.6664 85.8254 37.1016 85.8254 36.4085V35.2918C85.2863 36.877 83.1555 38.0001 80.4151 38.0001C77.9763 38.0515 75.6338 37.0696 73.9588 35.2918C72.2645 33.4756 71.3467 31.0689 71.3981 28.5788C71.3403 26.1079 72.2645 23.7076 73.9588 21.9106C75.6146 20.1136 77.9699 19.1125 80.4151 19.1702C81.6088 19.151 82.7897 19.3948 83.8743 19.8954C84.561 20.2163 85.3761 19.9147 85.697 19.2216C85.7804 19.0354 85.8254 18.8365 85.8254 18.6311ZM84.7407 31.8262C85.6456 30.9919 86.1591 29.811 86.1462 28.5788C86.1655 27.353 85.6521 26.1849 84.7407 25.3698C83.8551 24.4778 82.6421 23.9964 81.3842 24.0349C80.152 24.0029 78.9647 24.4906 78.1047 25.3698C77.341 26.0886 76.8725 27.0706 76.789 28.1167C76.6414 29.7276 77.341 31.2999 78.6374 32.269C79.4396 32.8402 80.4023 33.1418 81.3842 33.1226C82.6293 33.1547 83.8422 32.6862 84.7407 31.8262Z" fill="#14213D"/>
    <path d="M103.744 36.2802V13.9204C103.744 13.1567 104.367 12.5342 105.13 12.5342H107.73C108.493 12.5342 109.116 13.1567 109.116 13.9204V36.2802C109.116 37.0439 108.493 37.6664 107.73 37.6664H105.13C104.367 37.6664 103.744 37.0439 103.744 36.2802Z" fill="#14213D"/>
    <path d="M115.392 11.8472C117.074 11.8536 118.434 13.227 118.421 14.9149C118.415 16.5964 117.041 17.9569 115.354 17.9441C113.685 17.9377 112.331 16.5835 112.324 14.9149C112.311 13.2334 113.659 11.8664 115.341 11.8536C115.36 11.8536 115.373 11.8536 115.392 11.8536" fill="#14213D"/>
    <path d="M94.7656 36.2799V28.0137C94.7656 27.25 95.3882 26.6274 96.1519 26.6274H98.7511C99.5148 26.6274 100.137 27.25 100.137 28.0137V36.2799C100.137 37.0436 99.5148 37.6661 98.7511 37.6661H96.1583C95.3946 37.6661 94.772 37.05 94.7656 36.2799Z" fill="#14213D"/>
    <path d="M97.4355 18.9839C99.117 18.9903 100.478 20.3637 100.465 22.0516C100.458 23.7331 99.0849 25.0937 97.397 25.0808C95.7283 25.0744 94.3742 23.7202 94.3678 22.0516C94.3549 20.3701 95.7027 19.0031 97.3842 18.9903C97.4034 18.9903 97.4162 18.9903 97.4355 18.9903" fill="#FCA311"/>
    <path d="M112.723 36.2803V20.8775C112.723 20.1137 113.345 19.4912 114.109 19.4912H116.708C117.472 19.4912 118.094 20.1137 118.094 20.8775V36.2803C118.094 37.044 117.472 37.6665 116.708 37.6665H114.109C113.345 37.6665 112.723 37.044 112.723 36.2803Z" fill="#FCA311"/>
    <path d="M113.39 0.584023H113.371C113.32 0.250296 113.031 0 112.691 0C112.299 0 111.985 0.314474 111.985 0.705962L111.914 4.01115C111.85 3.93413 111.773 3.86354 111.683 3.80578C108.089 1.71356 104.932 1.20014 102.294 2.2655C98.8795 3.64533 97.6601 7.19439 97.4868 7.76558L95.8824 4.83905H95.8759C95.7412 4.52457 95.3946 4.35771 95.0609 4.44114C94.6822 4.54383 94.464 4.9289 94.5603 5.30755L96.6589 10.6921C96.8643 11.212 97.4547 11.4623 97.9746 11.2569L103.308 9.18392V9.16467C103.609 9.02348 103.776 8.68333 103.693 8.35602C103.59 7.97737 103.205 7.75916 102.826 7.86185H102.82L99.5084 8.6705C99.5534 8.5999 99.5855 8.5293 99.6111 8.45229C99.6175 8.4202 100.497 5.41023 103.128 4.34487C105.092 3.54906 107.595 4.02398 110.56 5.74396C110.611 5.76322 110.669 5.78247 110.72 5.80172L107.268 6.64246C106.927 6.70022 106.671 6.98902 106.671 7.33559C106.671 7.72707 106.985 8.04155 107.377 8.04155L113.114 7.4126C113.666 7.34842 114.064 6.84141 114 6.28306L113.377 0.590441L113.39 0.584023Z" fill="#FCA311"/>
  </g>
  <defs>
    <clipPath id="clip0_1163_108276">
      <rect width="118.46" height="38" fill="white"/>
    </clipPath>
  </defs>
</svg>