<svg width="257" height="77" viewBox="0 0 257 77" fill="none" xmlns="http://www.w3.org/2000/svg">
<g clip-path="url(#clip0_1165_110581)">
<path d="M247.428 0.986816H9.92773C4.68103 0.986816 0.427734 5.24011 0.427734 10.4868V67.4868C0.427734 72.7335 4.68103 76.9868 9.92773 76.9868H247.428C252.674 76.9868 256.928 72.7335 256.928 67.4868V10.4868C256.928 5.24011 252.674 0.986816 247.428 0.986816Z" fill="black"/>
<path d="M247.428 2.50682C251.836 2.50682 255.408 6.07882 255.408 10.4868V67.4868C255.408 71.8948 251.836 75.4668 247.428 75.4668H9.92773C5.51973 75.4668 1.94773 71.8948 1.94773 67.4868V10.4868C1.94773 6.07882 5.51973 2.50682 9.92773 2.50682H247.428ZM247.428 0.986816H9.92773C4.70273 0.986816 0.427734 5.26182 0.427734 10.4868V67.4868C0.427734 72.7118 4.70273 76.9868 9.92773 76.9868H247.428C252.653 76.9868 256.928 72.7118 256.928 67.4868V10.4868C256.928 5.26182 252.653 0.986816 247.428 0.986816Z" fill="#A6A6A6"/>
<path d="M91.7466 14.2869C91.5685 13.7418 91.3337 13.2533 91.0422 12.8215C90.7561 12.3842 90.4134 12.0118 90.014 11.7041C89.6199 11.3965 89.1719 11.1617 88.6699 10.9997C88.1679 10.8378 87.6174 10.7568 87.0182 10.7568C86.0358 10.7568 85.1425 11.0105 84.3382 11.5179C83.534 12.0253 82.8944 12.7729 82.4194 13.7607C81.9444 14.7484 81.7069 15.9602 81.7069 17.396C81.7069 18.8318 81.9471 20.0436 82.4275 21.0314C82.9078 22.0192 83.5583 22.7668 84.3787 23.2742C85.1992 23.7815 86.1222 24.0352 87.1478 24.0352C88.0978 24.0352 88.9344 23.8328 89.6577 23.428C90.3864 23.0178 90.9532 22.4402 91.358 21.6953C91.7682 20.945 91.9733 20.0625 91.9733 19.0477L92.5887 19.1773H87.6012V17.396H93.9165V19.1773C93.9165 20.5429 93.625 21.7304 93.0421 22.7398C92.4645 23.7492 91.6657 24.5318 90.6455 25.0878C89.6307 25.6384 88.4648 25.9136 87.1478 25.9136C85.6796 25.9136 84.3895 25.5682 83.2776 24.8773C82.1711 24.1864 81.3074 23.204 80.6867 21.9301C80.0713 20.6563 79.7637 19.1449 79.7637 17.396C79.7637 16.0844 79.9391 14.905 80.29 13.8578C80.6462 12.8053 81.1482 11.9092 81.7959 11.1698C82.4436 10.4303 83.2101 9.8635 84.0953 9.46947C84.9806 9.07544 85.9549 8.87842 87.0182 8.87842C87.8926 8.87842 88.7077 9.01066 89.4634 9.27515C90.2245 9.53424 90.9019 9.90399 91.4956 10.3844C92.0948 10.8594 92.5941 11.4288 92.9935 12.0928C93.3929 12.7513 93.6682 13.4827 93.8194 14.2869H91.7466Z" fill="white"/>
<path d="M97.3555 25.6869V9.10512H107.363V10.8864H99.3635V16.4892H106.845V18.2705H99.3635V23.9057H107.492V25.6869H97.3555Z" fill="white"/>
<path d="M110.075 10.8864V9.10512H122.512V10.8864H117.297V25.6869H115.289V10.8864H110.075Z" fill="white"/>
<path d="M134.031 9.10512V25.6869H132.023V9.10512H134.031Z" fill="white"/>
<path d="M137.15 10.8864V9.10512H149.587V10.8864H144.372V25.6869H142.364V10.8864H137.15Z" fill="white"/>
<path d="M173.089 17.396C173.089 19.1449 172.773 20.6563 172.142 21.9301C171.51 23.204 170.644 24.1864 169.543 24.8773C168.442 25.5682 167.184 25.9136 165.77 25.9136C164.356 25.9136 163.098 25.5682 161.997 24.8773C160.896 24.1864 160.029 23.204 159.398 21.9301C158.766 20.6563 158.45 19.1449 158.45 17.396C158.45 15.6472 158.766 14.1358 159.398 12.8619C160.029 11.5881 160.896 10.6057 161.997 9.91478C163.098 9.22387 164.356 8.87842 165.77 8.87842C167.184 8.87842 168.442 9.22387 169.543 9.91478C170.644 10.6057 171.51 11.5881 172.142 12.8619C172.773 14.1358 173.089 15.6472 173.089 17.396ZM171.146 17.396C171.146 15.9602 170.906 14.7484 170.425 13.7607C169.95 12.7729 169.305 12.0253 168.49 11.5179C167.681 11.0105 166.774 10.7568 165.77 10.7568C164.766 10.7568 163.856 11.0105 163.041 11.5179C162.231 12.0253 161.586 12.7729 161.106 13.7607C160.631 14.7484 160.394 15.9602 160.394 17.396C160.394 18.8318 160.631 20.0436 161.106 21.0314C161.586 22.0192 162.231 22.7668 163.041 23.2742C163.856 23.7815 164.766 24.0352 165.77 24.0352C166.774 24.0352 167.681 23.7815 168.49 23.2742C169.305 22.7668 169.95 22.0192 170.425 21.0314C170.906 20.0436 171.146 18.8318 171.146 17.396Z" fill="white"/>
<path d="M189.614 9.10512V25.6869H187.671L178.635 12.6676H178.473V25.6869H176.465V9.10512H178.408L187.477 22.1568H187.639V9.10512H189.614Z" fill="white"/>
<path d="M129.894 42.3118C125.429 42.3118 121.781 45.7128 121.781 50.3868C121.781 55.0608 125.429 58.4618 129.894 58.4618C134.359 58.4618 138.007 55.0418 138.007 50.3868C138.007 45.7318 134.359 42.3118 129.894 42.3118ZM129.894 55.2888C127.443 55.2888 125.334 53.2748 125.334 50.3868C125.334 47.4988 127.443 45.4848 129.894 45.4848C132.345 45.4848 134.454 47.4798 134.454 50.3868C134.454 53.2938 132.345 55.2888 129.894 55.2888ZM112.205 42.3118C107.74 42.3118 104.092 45.7128 104.092 50.3868C104.092 55.0608 107.74 58.4618 112.205 58.4618C116.67 58.4618 120.318 55.0418 120.318 50.3868C120.318 45.7318 116.67 42.3118 112.205 42.3118ZM112.205 55.2888C109.754 55.2888 107.645 53.2748 107.645 50.3868C107.645 47.4988 109.754 45.4848 112.205 45.4848C114.656 45.4848 116.765 47.4798 116.765 50.3868C116.765 53.2938 114.656 55.2888 112.205 55.2888ZM91.1529 44.7818V48.2018H99.3609C99.1139 50.1208 98.4679 51.5458 97.4989 52.5148C96.3019 53.7118 94.4398 55.0228 91.1719 55.0228C86.1178 55.0228 82.1659 50.9568 82.1659 45.9028C82.1659 40.8488 86.1178 36.7828 91.1719 36.7828C93.8889 36.7828 95.8839 37.8468 97.3469 39.2338L99.7599 36.8208C97.7079 34.8638 94.9909 33.3628 91.1529 33.3628C84.2369 33.3628 78.4229 38.9868 78.4229 45.9218C78.4229 52.8568 84.2369 58.4808 91.1529 58.4808C94.8959 58.4808 97.7079 57.2648 99.9119 54.9658C102.173 52.7048 102.876 49.5128 102.876 46.9478C102.876 46.1498 102.819 45.4088 102.686 44.8008H91.1529V44.7818ZM177.242 47.4418C176.577 45.6368 174.525 42.2928 170.326 42.2928C166.127 42.2928 162.707 45.5608 162.707 50.3678C162.707 54.8898 166.127 58.4428 170.725 58.4428C174.43 58.4428 176.577 56.1818 177.451 54.8708L174.696 53.0278C173.784 54.3768 172.53 55.2698 170.725 55.2698C168.92 55.2698 167.628 54.4528 166.811 52.8188L177.622 48.3538L177.261 47.4418H177.242ZM166.222 50.1398C166.127 47.0238 168.635 45.4278 170.44 45.4278C171.846 45.4278 173.043 46.1308 173.442 47.1378L166.222 50.1398ZM157.444 57.9678H160.997V34.2178H157.444V57.9678ZM151.63 44.0978H151.516C150.718 43.1478 149.198 42.2928 147.26 42.2928C143.213 42.2928 139.508 45.8458 139.508 50.4058C139.508 54.9658 143.213 58.4618 147.26 58.4618C149.179 58.4618 150.718 57.6068 151.516 56.6188H151.63V57.7778C151.63 60.8748 149.977 62.5278 147.317 62.5278C145.151 62.5278 143.802 60.9698 143.251 59.6588L140.154 60.9508C141.047 63.0978 143.403 65.7198 147.317 65.7198C151.478 65.7198 154.993 63.2688 154.993 57.3028V42.7868H151.63V44.0978ZM147.564 55.2698C145.113 55.2698 143.061 53.2178 143.061 50.4058C143.061 47.5938 145.113 45.4848 147.564 45.4848C150.015 45.4848 151.877 47.5748 151.877 50.4058C151.877 53.2368 149.977 55.2698 147.564 55.2698ZM193.886 34.2178H185.393V57.9678H188.946V48.9618H193.905C197.838 48.9618 201.695 46.1118 201.695 41.5898C201.695 37.0678 197.838 34.2178 193.905 34.2178H193.886ZM193.981 45.6748H188.946V37.5238H193.981C196.641 37.5238 198.142 39.7278 198.142 41.5898C198.142 43.4518 196.641 45.6558 193.981 45.6558V45.6748ZM215.888 42.2548C213.323 42.2548 210.663 43.3948 209.561 45.8838L212.715 47.1948C213.38 45.8838 214.634 45.4468 215.945 45.4468C217.769 45.4468 219.65 46.5488 219.669 48.5058V48.7528C219.023 48.3918 217.655 47.8408 215.964 47.8408C212.563 47.8408 209.124 49.7028 209.124 53.1798C209.124 56.3528 211.898 58.4048 215.014 58.4048C217.389 58.4048 218.719 57.3408 219.536 56.0868H219.65V57.9108H223.07V48.8098C223.07 44.5918 219.916 42.2358 215.85 42.2358L215.888 42.2548ZM215.451 55.2698C214.292 55.2698 212.677 54.6808 212.677 53.2558C212.677 51.4318 214.691 50.7288 216.439 50.7288C217.997 50.7288 218.738 51.0708 219.669 51.5268C219.403 53.7308 217.503 55.2888 215.451 55.2888V55.2698ZM235.553 42.7678L231.487 53.0658H231.373L227.155 42.7678H223.336L229.663 57.1698L226.053 65.1688H229.758L239.505 42.7678H235.572H235.553ZM203.614 57.9678H207.167V34.2178H203.614V57.9678Z" fill="white"/>
<path d="M39.7965 37.8847L19.5615 59.3547C20.1885 61.6917 22.3165 63.4017 24.8435 63.4017C25.8505 63.4017 26.8005 63.1357 27.6175 62.6417L27.6745 62.6037L50.4365 49.4747L39.7775 37.8657L39.7965 37.8847Z" fill="#EA4335"/>
<path d="M60.2588 34.2366H60.2398L50.4168 28.5176L39.3398 38.3786L50.4548 49.4936L60.2398 43.8506C61.9498 42.9196 63.1088 41.1146 63.1088 39.0436C63.1088 36.9726 61.9688 35.1676 60.2588 34.2556V34.2366Z" fill="#FBBC04"/>
<path d="M19.5611 18.6187C19.4471 19.0747 19.3711 19.5307 19.3711 20.0247V57.9487C19.3711 58.4427 19.4281 58.8987 19.5611 59.3546L40.4801 38.4357L19.5611 18.6187Z" fill="#4285F4"/>
<path d="M39.9485 38.9867L50.4175 28.5177L27.6745 15.3317C26.8575 14.8377 25.8885 14.5527 24.8435 14.5527C22.3165 14.5527 20.1885 16.2817 19.5615 18.5997L39.9485 38.9677V38.9867Z" fill="#34A853"/>
</g>
<defs>
<clipPath id="clip0_1165_110581">
<rect width="256.5" height="76" fill="white" transform="translate(0.427734 0.986816)"/>
</clipPath>
</defs>
</svg>
