<svg width="228" height="77" viewBox="0 0 228 77" fill="none" xmlns="http://www.w3.org/2000/svg">
<g id="Frame" clip-path="url(#clip0_1165_110502)">
<g id="Group">
<g id="Group_2">
<path id="Vector" d="M209.32 0.986816H18.1803C17.4962 0.986816 16.8122 0.986816 16.1092 0.986816C15.5202 0.986816 14.9502 0.986816 14.3612 1.00582C13.0882 1.00582 11.8152 1.13882 10.5612 1.34782C9.30725 1.55682 8.09125 1.95582 6.95124 2.54482C5.81124 3.13382 4.78524 3.87482 3.87324 4.78682C2.96124 5.67982 2.20124 6.72481 1.63124 7.86481C1.06124 9.00481 0.662242 10.2208 0.453242 11.4748C0.225242 12.7288 0.111242 14.0018 0.111242 15.2748C0.111242 15.8638 0.0922422 16.4338 0.0732422 17.0228V60.9508C0.0732422 61.5398 0.0732422 62.1098 0.111242 62.6988C0.111242 63.9718 0.244242 65.2448 0.453242 66.4988C0.662242 67.7528 1.06124 68.9878 1.65024 70.1088C2.22024 71.2488 2.98024 72.2748 3.89224 73.1678C4.78524 74.0798 5.83025 74.8208 6.97025 75.4098C8.11025 75.9798 9.32625 76.3978 10.5802 76.6068C11.8342 76.8158 13.1072 76.9298 14.3802 76.9488C14.9692 76.9488 15.5392 76.9678 16.1282 76.9678C16.8312 76.9678 17.5152 76.9678 18.1992 76.9678H209.32C210.004 76.9678 210.688 76.9678 211.372 76.9678C211.942 76.9678 212.55 76.9678 213.12 76.9488C214.393 76.9488 215.666 76.8158 216.92 76.6068C218.174 76.3978 219.409 75.9798 220.549 75.4098C221.689 74.8398 222.715 74.0798 223.627 73.1678C224.539 72.2748 225.28 71.2298 225.869 70.1088C226.439 68.9688 226.838 67.7528 227.047 66.4988C227.256 65.2448 227.37 63.9718 227.408 62.6988C227.408 62.1098 227.408 61.5398 227.408 60.9508C227.408 60.2668 227.408 59.5828 227.408 58.8798V19.1128C227.408 18.4098 227.408 17.7258 227.408 17.0418C227.408 16.4528 227.408 15.8828 227.408 15.2938C227.389 14.0208 227.275 12.7478 227.047 11.4938C226.838 10.2398 226.439 9.02382 225.869 7.88382C224.691 5.60382 222.829 3.74182 220.549 2.56382C219.409 1.99382 218.193 1.59482 216.92 1.36682C215.666 1.15782 214.393 1.04382 213.12 1.02482C212.55 1.02482 211.942 1.00582 211.372 1.00582C210.688 1.00582 210.004 1.00582 209.32 1.00582V0.986816Z" fill="#A6A6A6"/>
<path id="Vector_2" d="M16.1091 75.3337C15.5391 75.3337 14.9691 75.3337 14.3991 75.3147C13.2021 75.3147 12.0241 75.2007 10.8461 75.0107C9.74408 74.8207 8.69908 74.4787 7.69208 73.9657C6.70408 73.4717 5.81107 72.8067 5.03207 72.0277C4.25307 71.2487 3.58807 70.3557 3.09407 69.3677C2.60007 68.3797 2.23907 67.3157 2.06807 66.2137C1.87807 65.0357 1.76407 63.8387 1.74507 62.6417C1.74507 62.2427 1.72607 60.9127 1.72607 60.9127V17.0227C1.72607 17.0227 1.72607 15.7117 1.74507 15.3317C1.74507 14.1347 1.85907 12.9567 2.06807 11.7787C2.25807 10.6767 2.60007 9.61274 3.09407 8.62474C3.58807 7.63673 4.23407 6.74373 5.03207 5.96473C5.81107 5.18573 6.70408 4.52073 7.69208 4.02673C8.68008 3.53273 9.74408 3.17173 10.8271 3.00073C12.0051 2.81073 13.2021 2.69673 14.3991 2.69673H16.1091L211.372 2.67773H213.101C214.279 2.71573 215.457 2.81073 216.635 3.01973C217.737 3.20973 218.801 3.55173 219.808 4.06473C221.784 5.07173 223.38 6.68674 224.406 8.66274C224.9 9.65074 225.242 10.7147 225.432 11.7977C225.622 12.9757 225.736 14.1727 225.755 15.3887C225.755 15.9207 225.755 16.5097 225.755 17.0797C225.755 17.8017 225.755 18.4667 225.755 19.1507V58.8607C225.755 59.5447 225.755 60.2287 225.755 60.9127C225.755 61.5397 225.755 62.0907 225.755 62.6797C225.736 63.8577 225.622 65.0357 225.432 66.1947C225.261 67.2967 224.9 68.3607 224.406 69.3677C223.912 70.3367 223.247 71.2297 222.468 72.0087C221.689 72.7877 220.796 73.4527 219.808 73.9467C218.801 74.4597 217.737 74.8017 216.635 74.9917C215.457 75.1817 214.279 75.2957 213.082 75.2957C212.531 75.2957 211.942 75.3147 211.372 75.3147H209.32H16.1091V75.3337Z" fill="black"/>
</g>
<g id="Group_3">
<g id="Group 2">
<g id="Group 3">
<path id="Path" d="M47.1361 39.5567C47.1741 36.3267 48.8651 33.3627 51.6201 31.6717C49.8721 29.1827 47.06 27.6627 44.039 27.5677C40.847 27.2257 37.75 29.4677 36.135 29.4677C34.52 29.4677 31.974 27.5867 29.276 27.6437C25.723 27.7577 22.512 29.7337 20.783 32.8307C17.116 39.1957 19.852 48.5437 23.367 53.6927C25.134 56.2197 27.186 59.0317 29.884 58.9177C32.525 58.8037 33.513 57.2457 36.686 57.2457C39.8591 57.2457 40.7521 58.9177 43.5071 58.8607C46.3381 58.8227 48.1241 56.3337 49.8151 53.7877C51.0881 52.0017 52.0571 50.0067 52.7031 47.9167C49.3401 46.4917 47.1551 43.2047 47.1551 39.5567H47.1361Z" fill="white"/>
<path id="Path 2" d="M41.9491 24.1857C43.4881 22.3427 44.2481 19.9487 44.0581 17.5547C41.7021 17.8017 39.5171 18.9227 37.9591 20.7087C36.4201 22.4567 35.6411 24.7557 35.7931 27.0927C38.1871 27.1117 40.4481 26.0477 41.9491 24.1857Z" fill="white"/>
</g>
</g>
<g id="Group_4">
<path id="Vector_3" d="M80.4432 52.5524H71.4562L69.2902 58.9364H65.4902L74.0022 35.3384H77.9542L86.4662 58.9364H82.5902L80.4242 52.5524H80.4432ZM72.3872 49.6074H79.5122L75.9972 39.2524H75.9022L72.3872 49.6074Z" fill="white"/>
<path id="Vector_4" d="M104.877 50.3293C104.877 55.6683 102.008 59.1073 97.6954 59.1073C95.4724 59.2213 93.3634 58.0623 92.2804 56.1053H92.2044V64.6173H88.6704V41.7223H92.0904V44.5913H92.1474C93.2684 42.6533 95.3774 41.4753 97.6194 41.5513C101.989 41.5513 104.858 45.0093 104.858 50.3293H104.877ZM101.248 50.3293C101.248 46.8523 99.4434 44.5533 96.7074 44.5533C93.9714 44.5533 92.1854 46.8903 92.1854 50.3293C92.1854 53.7683 94.0094 56.1243 96.7074 56.1243C99.4054 56.1243 101.248 53.8443 101.248 50.3293Z" fill="white"/>
<path id="Vector_5" d="M123.801 50.3293C123.801 55.6683 120.932 59.1073 116.619 59.1073C114.396 59.2213 112.287 58.0623 111.204 56.1053H111.128V64.6173H107.594V41.7223H111.014V44.5913H111.071C112.192 42.6533 114.301 41.4753 116.543 41.5513C120.913 41.5513 123.782 45.0093 123.782 50.3293H123.801ZM120.172 50.3293C120.172 46.8523 118.367 44.5533 115.631 44.5533C112.895 44.5533 111.109 46.8903 111.109 50.3293C111.109 53.7683 112.933 56.1243 115.631 56.1243C118.329 56.1243 120.172 53.8443 120.172 50.3293Z" fill="white"/>
<path id="Vector_6" d="M136.322 52.3624C136.588 54.6994 138.849 56.2384 141.965 56.2384C145.081 56.2384 147.076 54.6994 147.076 52.5904C147.076 50.7664 145.784 49.6644 142.725 48.9044L139.666 48.1634C135.334 47.1184 133.32 45.0854 133.32 41.7984C133.32 37.7324 136.873 34.9395 141.908 34.9395C146.943 34.9395 150.306 37.7324 150.42 41.7984H146.848C146.639 39.4424 144.682 38.0175 141.851 38.0175C139.02 38.0175 137.063 39.4615 137.063 41.5515C137.063 43.2234 138.298 44.1924 141.338 44.9524L143.941 45.5984C148.786 46.7384 150.8 48.6954 150.8 52.1344C150.8 56.5424 147.285 59.3164 141.699 59.3164C136.474 59.3164 132.94 56.6184 132.712 52.3434H136.322V52.3624Z" fill="white"/>
<path id="Vector_7" d="M158.438 37.6562V41.7223H161.706V44.5153H158.438V53.9963C158.438 55.4783 159.084 56.1623 160.528 56.1623C160.908 56.1623 161.307 56.1243 161.687 56.0863V58.8602C161.041 58.9742 160.376 59.0312 159.73 59.0312C156.253 59.0312 154.885 57.7203 154.885 54.3953V44.5343H152.377V41.7413H154.885V37.6753H158.438V37.6562Z" fill="white"/>
<path id="Vector_8" d="M163.606 50.3297C163.606 44.9147 166.798 41.5137 171.757 41.5137C176.716 41.5137 179.908 44.9147 179.908 50.3297C179.908 55.7447 176.754 59.1457 171.757 59.1457C166.76 59.1457 163.606 55.7637 163.606 50.3297ZM176.336 50.3297C176.336 46.6247 174.626 44.4207 171.776 44.4207C168.926 44.4207 167.216 46.6247 167.216 50.3297C167.216 54.0347 168.907 56.2387 171.776 56.2387C174.645 56.2387 176.336 54.0727 176.336 50.3297Z" fill="white"/>
<path id="Vector_9" d="M182.834 41.7226H186.197V44.6486H186.273C186.748 42.7676 188.477 41.4756 190.415 41.5326C190.814 41.5326 191.232 41.5706 191.631 41.6656V44.9716C191.118 44.8196 190.586 44.7436 190.054 44.7626C188.097 44.6866 186.425 46.2066 186.349 48.1826C186.349 48.3726 186.349 48.5436 186.368 48.7336V58.9366H182.834V41.7416V41.7226Z" fill="white"/>
<path id="Vector_10" d="M207.895 53.8827C207.42 56.9987 204.38 59.1457 200.485 59.1457C195.488 59.1457 192.372 55.8017 192.372 50.4057C192.372 45.0097 195.488 41.5137 200.333 41.5137C205.178 41.5137 208.085 44.7817 208.085 50.0067V51.2227H195.944V51.4317C195.735 53.9017 197.54 56.0677 200.01 56.2957C200.2 56.2957 200.39 56.3147 200.561 56.2957C202.271 56.4477 203.886 55.4787 204.532 53.8827H207.876H207.895ZM195.963 48.7527H204.57C204.703 46.4727 202.955 44.5157 200.675 44.4017C200.561 44.4017 200.466 44.4017 200.352 44.4017C197.939 44.4017 195.982 46.3207 195.963 48.7337C195.963 48.7337 195.963 48.7527 195.963 48.7717V48.7527Z" fill="white"/>
</g>
</g>
</g>
<g id="Group 4">
<g id="Group_5">
<path id="Vector_11" d="M71.9502 17.5742C74.7052 17.3842 77.1182 19.4552 77.3082 22.2102C77.3272 22.5332 77.3082 22.8752 77.2892 23.1982C77.2892 26.8272 75.3322 28.8982 71.9502 28.8982H67.8462V17.5552H71.9502V17.5742ZM69.6132 27.3022H71.7412C73.6982 27.4162 75.3892 25.9152 75.5032 23.9582C75.5032 23.7112 75.5032 23.4642 75.4652 23.2172C75.7312 21.2602 74.3632 19.4552 72.4062 19.1892C72.1782 19.1512 71.9502 19.1512 71.7222 19.1702H69.5942V27.3022H69.6132Z" fill="white"/>
<path id="Vector_12" d="M79.2651 24.6227C79.0561 22.3997 80.6901 20.4237 82.9131 20.1957C85.1361 19.9867 87.1121 21.6207 87.3401 23.8437C87.3591 24.1097 87.3591 24.3567 87.3401 24.6227C87.5491 26.8457 85.9341 28.8407 83.6921 29.0497C81.4691 29.2587 79.4741 27.6437 79.2651 25.4017C79.2461 25.1357 79.2461 24.8697 79.2651 24.6227ZM85.5921 24.6227C85.5921 22.7607 84.7561 21.6777 83.2931 21.6777C81.8301 21.6777 80.9941 22.7607 80.9941 24.6227C80.9941 26.4847 81.8111 27.5677 83.2931 27.5677C84.7561 27.5677 85.5921 26.4847 85.5921 24.6227Z" fill="white"/>
<path id="Vector_13" d="M98.0562 28.9172H96.3082L94.5412 22.6092H94.4082L92.6412 28.9172H90.9122L88.5562 20.3672H90.2662L91.8052 26.9032H91.9382L93.7052 20.3672H95.3202L97.0872 26.9032H97.2202L98.7402 20.3672H100.431L98.0752 28.9172H98.0562Z" fill="white"/>
<path id="Vector_14" d="M102.388 20.3478H104.022V21.7158H104.155C104.592 20.7088 105.618 20.1008 106.701 20.1958C108.24 20.0818 109.57 21.2218 109.684 22.7608C109.684 22.9698 109.684 23.1788 109.665 23.3688V28.8978H107.974V23.7868C107.974 22.4188 107.385 21.7348 106.131 21.7348C105.048 21.6778 104.136 22.5138 104.079 23.5968C104.079 23.6918 104.079 23.8058 104.079 23.9008V28.8978H102.388V20.3478Z" fill="white"/>
<path id="Vector_15" d="M112.344 17.0229H114.035V28.9169H112.344V17.0229Z" fill="white"/>
<path id="Vector_16" d="M116.391 24.6227C116.182 22.3997 117.816 20.4237 120.039 20.1957C122.262 19.9867 124.238 21.6207 124.466 23.8437C124.485 24.1097 124.485 24.3567 124.466 24.6227C124.675 26.8457 123.06 28.8407 120.818 29.0497C118.576 29.2587 116.6 27.6437 116.391 25.4017C116.372 25.1357 116.372 24.8697 116.391 24.6227ZM122.718 24.6227C122.718 22.7607 121.882 21.6777 120.419 21.6777C118.956 21.6777 118.12 22.7607 118.12 24.6227C118.12 26.4847 118.937 27.5677 120.419 27.5677C121.882 27.5677 122.718 26.4847 122.718 24.6227Z" fill="white"/>
<path id="Vector_17" d="M126.233 26.4848C126.233 24.9458 127.373 24.0528 129.406 23.9388L131.724 23.8058V23.0648C131.724 22.1528 131.135 21.6588 129.976 21.6588C129.026 21.6588 128.38 22.0008 128.19 22.6088H126.556C126.727 21.1458 128.114 20.1958 130.052 20.1958C132.199 20.1958 133.415 21.2598 133.415 23.0648V28.9168H131.781V27.7198H131.648C131.097 28.5938 130.109 29.1068 129.083 29.0688C127.658 29.2208 126.385 28.1758 126.252 26.7698C126.252 26.6938 126.252 26.5988 126.252 26.5038L126.233 26.4848ZM131.724 25.7628V25.0408L129.634 25.1738C128.456 25.2498 127.924 25.6488 127.924 26.4088C127.924 27.1688 128.589 27.6248 129.501 27.6248C130.603 27.7388 131.591 26.9218 131.705 25.8198C131.705 25.8008 131.705 25.7818 131.705 25.7438L131.724 25.7628Z" fill="white"/>
<path id="Vector_18" d="M135.638 24.6229C135.638 21.9249 137.025 20.2149 139.191 20.2149C140.274 20.1579 141.3 20.7469 141.813 21.7159H141.946V17.0229H143.637V28.9169H142.022V27.5679H141.889C141.338 28.5179 140.312 29.1069 139.21 29.0689C137.025 29.0689 135.657 27.3589 135.657 24.6419L135.638 24.6229ZM137.386 24.6229C137.386 26.4469 138.241 27.5299 139.666 27.5299C141.091 27.5299 141.965 26.4279 141.965 24.6229C141.965 22.8179 141.072 21.7159 139.666 21.7159C138.26 21.7159 137.386 22.8179 137.386 24.6229Z" fill="white"/>
<path id="Vector_19" d="M150.61 24.6228C150.401 22.3998 152.035 20.4238 154.258 20.1958C156.481 19.9678 158.457 21.6208 158.685 23.8438C158.704 24.1098 158.704 24.3568 158.685 24.6228C158.894 26.8458 157.279 28.8408 155.037 29.0498C152.814 29.2588 150.819 27.6438 150.61 25.4018C150.591 25.1358 150.591 24.8698 150.61 24.6228ZM156.937 24.6228C156.937 22.7608 156.101 21.6778 154.638 21.6778C153.175 21.6778 152.339 22.7608 152.339 24.6228C152.339 26.4848 153.156 27.5678 154.638 27.5678C156.101 27.5678 156.937 26.4848 156.937 24.6228Z" fill="white"/>
<path id="Vector_20" d="M160.946 20.3478H162.58V21.7158H162.713C163.15 20.7088 164.176 20.1008 165.259 20.1958C166.798 20.0818 168.128 21.2218 168.242 22.7608C168.242 22.9698 168.242 23.1788 168.223 23.3688V28.8978H166.532V23.7868C166.532 22.4188 165.943 21.7348 164.689 21.7348C163.606 21.6778 162.694 22.5138 162.637 23.5968C162.637 23.6918 162.637 23.8058 162.637 23.9008V28.8978H160.946V20.3478Z" fill="white"/>
<path id="Vector_21" d="M177.761 18.2197V20.3857H179.623V21.8107H177.761V26.2187C177.761 27.1117 178.122 27.5107 178.977 27.5107C179.186 27.5107 179.414 27.5107 179.623 27.4727V28.8787C179.319 28.9357 179.015 28.9547 178.711 28.9737C176.83 28.9737 176.089 28.3087 176.089 26.6557V21.8297H174.74V20.4047H176.089V18.2387H177.78L177.761 18.2197Z" fill="white"/>
<path id="Vector_22" d="M181.903 17.0229H183.575V21.7349H183.708C184.164 20.7279 185.209 20.1199 186.311 20.1959C187.869 20.1199 189.199 21.2979 189.275 22.8559C189.275 23.0269 189.275 23.2169 189.256 23.3879V28.9169H187.565V23.8059C187.565 22.4379 186.938 21.754 185.741 21.754C184.639 21.6589 183.67 22.4759 183.594 23.578C183.594 23.6919 183.594 23.8059 183.594 23.9199V28.9169H181.903V17.0229Z" fill="white"/>
<path id="Vector_23" d="M199.117 26.5988C198.642 28.2138 197.084 29.2588 195.412 29.0688C193.265 29.1258 191.479 27.4348 191.422 25.2878C191.422 25.0788 191.422 24.8698 191.46 24.6608C191.175 22.4948 192.695 20.5188 194.842 20.2338C195.032 20.2148 195.222 20.1958 195.393 20.1958C197.768 20.1958 199.212 21.8298 199.212 24.5088V25.0978H193.17V25.1928C193.056 26.4468 193.987 27.5298 195.241 27.6438C195.317 27.6438 195.393 27.6438 195.45 27.6438C196.267 27.7388 197.084 27.3398 197.483 26.5988H199.117ZM193.17 23.8438H197.483C197.559 22.7038 196.723 21.7158 195.583 21.6398C195.507 21.6398 195.45 21.6398 195.374 21.6398C194.158 21.6398 193.17 22.5898 193.151 23.8058C193.151 23.8058 193.151 23.8438 193.151 23.8628L193.17 23.8438Z" fill="white"/>
</g>
</g>
</g>
<defs>
<clipPath id="clip0_1165_110502">
<rect width="227.354" height="76" fill="white" transform="translate(0.0732422 0.986816)"/>
</clipPath>
</defs>
</svg>
