<svg width="73" height="72" viewBox="0 0 73 72" fill="none" xmlns="http://www.w3.org/2000/svg">
  <g filter="url(#filter0_d_1163_107513)">
    <path d="M36.4998 15.0605C25.0207 15.0605 15.6665 24.4147 15.6665 35.8939C15.6665 47.3731 25.0207 56.7272 36.4998 56.7272C47.979 56.7272 57.3332 47.3731 57.3332 35.8939C57.3332 24.4147 47.979 15.0605 36.4998 15.0605ZM45.5623 43.3314C45.2707 43.8314 44.7498 44.1022 44.2082 44.1022C43.9373 44.1022 43.6665 44.0397 43.4165 43.873L36.9582 40.0189C35.354 39.0605 34.1665 36.9564 34.1665 35.1022V26.5605C34.1665 25.7064 34.8748 24.998 35.729 24.998C36.5832 24.998 37.2915 25.7064 37.2915 26.5605V35.1022C37.2915 35.8522 37.9165 36.9564 38.5623 37.3314L45.0207 41.1855C45.7707 41.623 46.0207 42.5814 45.5623 43.3314Z" fill="url(#paint0_linear_1163_107513)"/>
    <path d="M36.4998 15.0605C25.0207 15.0605 15.6665 24.4147 15.6665 35.8939C15.6665 47.3731 25.0207 56.7272 36.4998 56.7272C47.979 56.7272 57.3332 47.3731 57.3332 35.8939C57.3332 24.4147 47.979 15.0605 36.4998 15.0605ZM45.5623 43.3314C45.2707 43.8314 44.7498 44.1022 44.2082 44.1022C43.9373 44.1022 43.6665 44.0397 43.4165 43.873L36.9582 40.0189C35.354 39.0605 34.1665 36.9564 34.1665 35.1022V26.5605C34.1665 25.7064 34.8748 24.998 35.729 24.998C36.5832 24.998 37.2915 25.7064 37.2915 26.5605V35.1022C37.2915 35.8522 37.9165 36.9564 38.5623 37.3314L45.0207 41.1855C45.7707 41.623 46.0207 42.5814 45.5623 43.3314Z" fill="url(#paint1_linear_1163_107513)"/>
  </g>
  <defs>
    <filter id="filter0_d_1163_107513" x="0.666504" y="0.0605469" width="71.6665" height="71.6665" filterUnits="userSpaceOnUse" color-interpolation-filters="sRGB">
      <feFlood flood-opacity="0" result="BackgroundImageFix"/>
      <feColorMatrix in="SourceAlpha" type="matrix" values="0 0 0 0 0 0 0 0 0 0 0 0 0 0 0 0 0 0 127 0" result="hardAlpha"/>
      <feOffset/>
      <feGaussianBlur stdDeviation="7.5"/>
      <feComposite in2="hardAlpha" operator="out"/>
      <feColorMatrix type="matrix" values="0 0 0 0 0 0 0 0 0 0 0 0 0 0 0 0 0 0 0.03 0"/>
      <feBlend mode="normal" in2="BackgroundImageFix" result="effect1_dropShadow_1163_107513"/>
      <feBlend mode="normal" in="SourceGraphic" in2="effect1_dropShadow_1163_107513" result="shape"/>
    </filter>
    <linearGradient id="paint0_linear_1163_107513" x1="15.6665" y1="35.8939" x2="80.2709" y2="35.8939" gradientUnits="userSpaceOnUse">
      <stop stop-color="#FCA311"/>
      <stop offset="1" stop-color="#F9D423"/>
    </linearGradient>
    <linearGradient id="paint1_linear_1163_107513" x1="15.6665" y1="35.8939" x2="129.654" y2="35.8939" gradientUnits="userSpaceOnUse">
      <stop stop-color="#FCA311"/>
      <stop offset="1" stop-color="#F9D423"/>
    </linearGradient>
  </defs>
</svg>