<svg width="63" height="81" viewBox="0 0 63 81" fill="none" xmlns="http://www.w3.org/2000/svg">
  <g filter="url(#filter0_d_1163_107504)">
    <path d="M29.8531 65.8921C29.3524 65.7625 28.8379 65.6702 28.3548 65.4954C27.4397 65.1655 26.4381 64.9397 25.6546 64.4055C22.2749 62.1001 19.2075 59.3743 16.8097 56.0811C14.571 53.0097 14.459 49.4808 16.1989 46.0756C17.6777 43.181 18.2491 40.2196 17.7228 37.0068C17.4047 35.0705 18.5633 33.5525 20.4172 33.2638C22.2553 32.9771 23.9579 34.1515 24.3113 36.0014C24.6334 37.6883 24.9005 39.385 25.2245 41.2722C25.7547 40.7734 26.175 40.3845 26.5893 39.9878C31.6343 35.1746 36.6832 30.3673 41.7183 25.5442C42.6001 24.6998 43.5918 24.2363 44.8132 24.4956C46.0269 24.7528 46.8674 25.5049 47.2091 26.693C47.5704 27.9518 47.2464 29.0731 46.2841 29.9922C43.2167 32.9143 40.1571 35.8423 37.0818 38.7526C36.8069 39.0138 36.4338 39.1729 36.2197 39.5283C38.0441 39.3084 39.5464 39.5931 40.3633 41.2348C41.1803 42.8785 40.3731 44.1766 38.8237 45.4236C40.8857 44.9366 42.4292 45.2547 43.2579 46.9612C44.2673 49.0389 43.1421 50.5491 41.5868 51.8884C42.7631 51.5074 43.8294 51.5428 44.825 52.1987C46.5237 53.32 46.7751 55.5587 45.2924 57.008C43.148 59.1014 40.9642 61.1555 38.7491 63.1742C37.2468 64.543 35.4264 65.3207 33.4351 65.7016C33.2171 65.7429 33.005 65.8273 32.791 65.8941H29.8571L29.8531 65.8921Z" fill="url(#paint0_linear_1163_107504)"/>
    <path d="M29.8531 65.8921C29.3524 65.7625 28.8379 65.6702 28.3548 65.4954C27.4397 65.1655 26.4381 64.9397 25.6546 64.4055C22.2749 62.1001 19.2075 59.3743 16.8097 56.0811C14.571 53.0097 14.459 49.4808 16.1989 46.0756C17.6777 43.181 18.2491 40.2196 17.7228 37.0068C17.4047 35.0705 18.5633 33.5525 20.4172 33.2638C22.2553 32.9771 23.9579 34.1515 24.3113 36.0014C24.6334 37.6883 24.9005 39.385 25.2245 41.2722C25.7547 40.7734 26.175 40.3845 26.5893 39.9878C31.6343 35.1746 36.6832 30.3673 41.7183 25.5442C42.6001 24.6998 43.5918 24.2363 44.8132 24.4956C46.0269 24.7528 46.8674 25.5049 47.2091 26.693C47.5704 27.9518 47.2464 29.0731 46.2841 29.9922C43.2167 32.9143 40.1571 35.8423 37.0818 38.7526C36.8069 39.0138 36.4338 39.1729 36.2197 39.5283C38.0441 39.3084 39.5464 39.5931 40.3633 41.2348C41.1803 42.8785 40.3731 44.1766 38.8237 45.4236C40.8857 44.9366 42.4292 45.2547 43.2579 46.9612C44.2673 49.0389 43.1421 50.5491 41.5868 51.8884C42.7631 51.5074 43.8294 51.5428 44.825 52.1987C46.5237 53.32 46.7751 55.5587 45.2924 57.008C43.148 59.1014 40.9642 61.1555 38.7491 63.1742C37.2468 64.543 35.4264 65.3207 33.4351 65.7016C33.2171 65.7429 33.005 65.8273 32.791 65.8941H29.8571L29.8531 65.8921Z" fill="url(#paint1_linear_1163_107504)"/>
    <path d="M29.2248 24.3756H26.1868V15.894H29.2248V24.3756Z" fill="url(#paint2_linear_1163_107504)"/>
    <path d="M29.2248 24.3756H26.1868V15.894H29.2248V24.3756Z" fill="url(#paint3_linear_1163_107504)"/>
    <path d="M38.4055 21.6735C36.6833 23.3918 34.8884 25.1828 33.0463 27.0228C32.414 26.3434 31.7404 25.6207 31.1356 24.9727C32.8715 23.2131 34.6684 21.3907 36.5163 19.5192C37.1035 20.1908 37.7437 20.9194 38.4055 21.6755V21.6735Z" fill="url(#paint4_linear_1163_107504)"/>
    <path d="M38.4055 21.6735C36.6833 23.3918 34.8884 25.1828 33.0463 27.0228C32.414 26.3434 31.7404 25.6207 31.1356 24.9727C32.8715 23.2131 34.6684 21.3907 36.5163 19.5192C37.1035 20.1908 37.7437 20.9194 38.4055 21.6755V21.6735Z" fill="url(#paint5_linear_1163_107504)"/>
    <path d="M16.9864 21.6441C17.5343 21.1099 18.2275 20.4324 18.8697 19.8079C20.6351 21.6009 22.4064 23.3977 24.1483 25.1671C23.6043 25.6993 22.9151 26.3748 22.3004 26.9777C20.5958 25.2653 18.797 23.4625 16.9864 21.6441Z" fill="url(#paint6_linear_1163_107504)"/>
    <path d="M16.9864 21.6441C17.5343 21.1099 18.2275 20.4324 18.8697 19.8079C20.6351 21.6009 22.4064 23.3977 24.1483 25.1671C23.6043 25.6993 22.9151 26.3748 22.3004 26.9777C20.5958 25.2653 18.797 23.4625 16.9864 21.6441Z" fill="url(#paint7_linear_1163_107504)"/>
  </g>
  <defs>
    <filter id="filter0_d_1163_107504" x="0" y="0.894043" width="62.353" height="80" filterUnits="userSpaceOnUse" color-interpolation-filters="sRGB">
      <feFlood flood-opacity="0" result="BackgroundImageFix"/>
      <feColorMatrix in="SourceAlpha" type="matrix" values="0 0 0 0 0 0 0 0 0 0 0 0 0 0 0 0 0 0 127 0" result="hardAlpha"/>
      <feOffset/>
      <feGaussianBlur stdDeviation="7.5"/>
      <feComposite in2="hardAlpha" operator="out"/>
      <feColorMatrix type="matrix" values="0 0 0 0 0 0 0 0 0 0 0 0 0 0 0 0 0 0 0.03 0"/>
      <feBlend mode="normal" in2="BackgroundImageFix" result="effect1_dropShadow_1163_107504"/>
      <feBlend mode="normal" in="SourceGraphic" in2="effect1_dropShadow_1163_107504" result="shape"/>
    </filter>
    <linearGradient id="paint0_linear_1163_107504" x1="15" y1="40.8941" x2="65.1632" y2="40.8941" gradientUnits="userSpaceOnUse">
      <stop stop-color="#FCA311"/>
      <stop offset="1" stop-color="#F9D423"/>
    </linearGradient>
    <linearGradient id="paint1_linear_1163_107504" x1="15" y1="40.8941" x2="103.507" y2="40.8941" gradientUnits="userSpaceOnUse">
      <stop stop-color="#FCA311"/>
      <stop offset="1" stop-color="#F9D423"/>
    </linearGradient>
    <linearGradient id="paint2_linear_1163_107504" x1="15" y1="40.8941" x2="65.1632" y2="40.8941" gradientUnits="userSpaceOnUse">
      <stop stop-color="#FCA311"/>
      <stop offset="1" stop-color="#F9D423"/>
    </linearGradient>
    <linearGradient id="paint3_linear_1163_107504" x1="15" y1="40.8941" x2="103.507" y2="40.8941" gradientUnits="userSpaceOnUse">
      <stop stop-color="#FCA311"/>
      <stop offset="1" stop-color="#F9D423"/>
    </linearGradient>
    <linearGradient id="paint4_linear_1163_107504" x1="15" y1="40.8941" x2="65.1632" y2="40.8941" gradientUnits="userSpaceOnUse">
      <stop stop-color="#FCA311"/>
      <stop offset="1" stop-color="#F9D423"/>
    </linearGradient>
    <linearGradient id="paint5_linear_1163_107504" x1="15" y1="40.8941" x2="103.507" y2="40.8941" gradientUnits="userSpaceOnUse">
      <stop stop-color="#FCA311"/>
      <stop offset="1" stop-color="#F9D423"/>
    </linearGradient>
    <linearGradient id="paint6_linear_1163_107504" x1="15" y1="40.8941" x2="65.1632" y2="40.8941" gradientUnits="userSpaceOnUse">
      <stop stop-color="#FCA311"/>
      <stop offset="1" stop-color="#F9D423"/>
    </linearGradient>
    <linearGradient id="paint7_linear_1163_107504" x1="15" y1="40.8941" x2="103.507" y2="40.8941" gradientUnits="userSpaceOnUse">
      <stop stop-color="#FCA311"/>
      <stop offset="1" stop-color="#F9D423"/>
    </linearGradient>
  </defs>
</svg>