<svg width="69" height="72" viewBox="0 0 69 72" fill="none" xmlns="http://www.w3.org/2000/svg">
  <g filter="url(#filter0_d_1163_107523)">
    <path d="M53.0625 34.0605V24.9147C53.0625 23.2064 51.7708 21.2689 50.1667 20.623L38.5625 15.873C35.9583 14.8105 33.0208 14.8105 30.4167 15.873L18.8125 20.623C17.2292 21.2689 15.9375 23.2064 15.9375 24.9147V34.0605C15.9375 44.248 23.3333 53.7897 33.4375 56.5814C34.125 56.7689 34.875 56.7689 35.5625 56.5814C45.6667 53.7897 53.0625 44.248 53.0625 34.0605ZM36.0625 37.7064V43.1855C36.0625 44.0397 35.3542 44.748 34.5 44.748C33.6458 44.748 32.9375 44.0397 32.9375 43.1855V37.7064C30.8333 37.0397 29.2917 35.0814 29.2917 32.7689C29.2917 29.8939 31.625 27.5605 34.5 27.5605C37.375 27.5605 39.7083 29.8939 39.7083 32.7689C39.7083 35.1022 38.1667 37.0397 36.0625 37.7064Z" fill="url(#paint0_linear_1163_107523)"/>
  </g>
  <defs>
    <filter id="filter0_d_1163_107523" x="0.9375" y="0.0761719" width="67.125" height="71.646" filterUnits="userSpaceOnUse" color-interpolation-filters="sRGB">
      <feFlood flood-opacity="0" result="BackgroundImageFix"/>
      <feColorMatrix in="SourceAlpha" type="matrix" values="0 0 0 0 0 0 0 0 0 0 0 0 0 0 0 0 0 0 127 0" result="hardAlpha"/>
      <feOffset/>
      <feGaussianBlur stdDeviation="7.5"/>
      <feComposite in2="hardAlpha" operator="out"/>
      <feColorMatrix type="matrix" values="0 0 0 0 0 0 0 0 0 0 0 0 0 0 0 0 0 0 0.03 0"/>
      <feBlend mode="normal" in2="BackgroundImageFix" result="effect1_dropShadow_1163_107523"/>
      <feBlend mode="normal" in="SourceGraphic" in2="effect1_dropShadow_1163_107523" result="shape"/>
    </filter>
    <linearGradient id="paint0_linear_1163_107523" x1="15.9375" y1="35.8991" x2="117.5" y2="35.8991" gradientUnits="userSpaceOnUse">
      <stop stop-color="#FCA311"/>
      <stop offset="1" stop-color="#F9D423"/>
    </linearGradient>
  </defs>
</svg>