<svg width="77" height="72" viewBox="0 0 77 72" fill="none" xmlns="http://www.w3.org/2000/svg">
  <g filter="url(#filter0_d_1163_107531)">
    <path d="M60.1148 43.1855C60.6982 43.1855 61.1565 43.6439 61.1565 44.2272V46.3105C61.1565 49.7689 58.3648 52.5605 54.9065 52.5605C54.9065 49.123 52.094 46.3105 48.6565 46.3105C45.219 46.3105 42.4065 49.123 42.4065 52.5605H38.2398C38.2398 49.123 35.4273 46.3105 31.9898 46.3105C28.5523 46.3105 25.7398 49.123 25.7398 52.5605C22.2815 52.5605 19.4898 49.7689 19.4898 46.3105V42.1439C19.4898 40.998 20.4273 40.0605 21.5732 40.0605H41.3648C44.2398 40.0605 46.5732 37.7272 46.5732 34.8522V23.3939C46.5732 22.248 47.5107 21.3105 48.6565 21.3105H50.4065C51.9065 21.3105 53.2815 22.123 54.0315 23.4147L55.3648 25.748C55.5523 26.0814 55.3023 26.5189 54.9065 26.5189C52.0315 26.5189 49.6982 28.8522 49.6982 31.7272V37.9772C49.6982 40.8522 52.0315 43.1855 54.9065 43.1855H60.1148Z" fill="url(#paint0_linear_1163_107531)"/>
    <path d="M60.1148 43.1855C60.6982 43.1855 61.1565 43.6439 61.1565 44.2272V46.3105C61.1565 49.7689 58.3648 52.5605 54.9065 52.5605C54.9065 49.123 52.094 46.3105 48.6565 46.3105C45.219 46.3105 42.4065 49.123 42.4065 52.5605H38.2398C38.2398 49.123 35.4273 46.3105 31.9898 46.3105C28.5523 46.3105 25.7398 49.123 25.7398 52.5605C22.2815 52.5605 19.4898 49.7689 19.4898 46.3105V42.1439C19.4898 40.998 20.4273 40.0605 21.5732 40.0605H41.3648C44.2398 40.0605 46.5732 37.7272 46.5732 34.8522V23.3939C46.5732 22.248 47.5107 21.3105 48.6565 21.3105H50.4065C51.9065 21.3105 53.2815 22.123 54.0315 23.4147L55.3648 25.748C55.5523 26.0814 55.3023 26.5189 54.9065 26.5189C52.0315 26.5189 49.6982 28.8522 49.6982 31.7272V37.9772C49.6982 40.8522 52.0315 43.1855 54.9065 43.1855H60.1148Z" fill="url(#paint1_linear_1163_107531)"/>
    <path d="M31.9897 56.7272C34.2909 56.7272 36.1564 54.8617 36.1564 52.5605C36.1564 50.2593 34.2909 48.3938 31.9897 48.3938C29.6885 48.3938 27.823 50.2593 27.823 52.5605C27.823 54.8617 29.6885 56.7272 31.9897 56.7272Z" fill="url(#paint2_linear_1163_107531)"/>
    <path d="M31.9897 56.7272C34.2909 56.7272 36.1564 54.8617 36.1564 52.5605C36.1564 50.2593 34.2909 48.3938 31.9897 48.3938C29.6885 48.3938 27.823 50.2593 27.823 52.5605C27.823 54.8617 29.6885 56.7272 31.9897 56.7272Z" fill="url(#paint3_linear_1163_107531)"/>
    <path d="M48.6565 56.7272C50.9577 56.7272 52.8232 54.8617 52.8232 52.5605C52.8232 50.2593 50.9577 48.3938 48.6565 48.3938C46.3553 48.3938 44.4898 50.2593 44.4898 52.5605C44.4898 54.8617 46.3553 56.7272 48.6565 56.7272Z" fill="url(#paint4_linear_1163_107531)"/>
    <path d="M48.6565 56.7272C50.9577 56.7272 52.8232 54.8617 52.8232 52.5605C52.8232 50.2593 50.9577 48.3938 48.6565 48.3938C46.3553 48.3938 44.4898 50.2593 44.4898 52.5605C44.4898 54.8617 46.3553 56.7272 48.6565 56.7272Z" fill="url(#paint5_linear_1163_107531)"/>
    <path d="M61.1564 36.998V40.0605H54.9064C53.7605 40.0605 52.823 39.123 52.823 37.9772V31.7272C52.823 30.5813 53.7605 29.6438 54.9064 29.6438H57.5939L60.6147 34.9355C60.9689 35.5605 61.1564 36.2688 61.1564 36.998Z" fill="url(#paint6_linear_1163_107531)"/>
    <path d="M61.1564 36.998V40.0605H54.9064C53.7605 40.0605 52.823 39.123 52.823 37.9772V31.7272C52.823 30.5813 53.7605 29.6438 54.9064 29.6438H57.5939L60.6147 34.9355C60.9689 35.5605 61.1564 36.2688 61.1564 36.998Z" fill="url(#paint7_linear_1163_107531)"/>
    <path d="M42.5732 15.0605H27.1773C23.4482 15.0605 20.3232 17.7272 19.6357 21.2689H28.7398C29.5315 21.2689 30.1565 21.9147 30.1565 22.7064C30.1565 23.498 29.5315 24.123 28.7398 24.123H19.4898V26.998H24.9065C25.6982 26.998 26.344 27.6439 26.344 28.4355C26.344 29.2272 25.6982 29.8522 24.9065 29.8522H19.4898V32.7272H21.094C21.8857 32.7272 22.5315 33.373 22.5315 34.1647C22.5315 34.9564 21.8857 35.5814 21.094 35.5814H19.4898V36.0605C19.4898 37.2064 20.4273 38.1439 21.5732 38.1439H40.6357C42.7607 38.1439 44.4898 36.4147 44.4898 34.2897V16.9772C44.4898 15.9147 43.6357 15.0605 42.5732 15.0605Z" fill="url(#paint8_linear_1163_107531)"/>
    <path d="M42.5732 15.0605H27.1773C23.4482 15.0605 20.3232 17.7272 19.6357 21.2689H28.7398C29.5315 21.2689 30.1565 21.9147 30.1565 22.7064C30.1565 23.498 29.5315 24.123 28.7398 24.123H19.4898V26.998H24.9065C25.6982 26.998 26.344 27.6439 26.344 28.4355C26.344 29.2272 25.6982 29.8522 24.9065 29.8522H19.4898V32.7272H21.094C21.8857 32.7272 22.5315 33.373 22.5315 34.1647C22.5315 34.9564 21.8857 35.5814 21.094 35.5814H19.4898V36.0605C19.4898 37.2064 20.4273 38.1439 21.5732 38.1439H40.6357C42.7607 38.1439 44.4898 36.4147 44.4898 34.2897V16.9772C44.4898 15.9147 43.6357 15.0605 42.5732 15.0605Z" fill="url(#paint9_linear_1163_107531)"/>
    <path d="M19.6357 21.2689L17.2813 21.2688C16.4896 21.2688 15.8438 21.9146 15.8438 22.7063C15.8438 23.4979 16.4896 24.1229 17.2813 24.1229L19.4898 24.123L19.4896 22.7479C19.4896 22.2479 19.5523 21.748 19.6357 21.2689Z" fill="url(#paint10_linear_1163_107531)"/>
    <path d="M19.6357 21.2689L17.2813 21.2688C16.4896 21.2688 15.8438 21.9146 15.8438 22.7063C15.8438 23.4979 16.4896 24.1229 17.2813 24.1229L19.4898 24.123L19.4896 22.7479C19.4896 22.2479 19.5523 21.748 19.6357 21.2689Z" fill="url(#paint11_linear_1163_107531)"/>
    <path d="M17.2812 26.998C16.4896 26.998 15.8438 27.6438 15.8438 28.4355C15.8438 29.2271 16.4896 29.8521 17.2812 29.8521L19.4898 29.8522V26.998L17.2812 26.998Z" fill="url(#paint12_linear_1163_107531)"/>
    <path d="M17.2812 26.998C16.4896 26.998 15.8438 27.6438 15.8438 28.4355C15.8438 29.2271 16.4896 29.8521 17.2812 29.8521L19.4898 29.8522V26.998L17.2812 26.998Z" fill="url(#paint13_linear_1163_107531)"/>
    <path d="M17.2812 32.7272C16.4896 32.7272 15.8438 33.373 15.8438 34.1647C15.8438 34.9563 16.4896 35.5813 17.2812 35.5813L19.4898 35.5814V32.7272L17.2812 32.7272Z" fill="url(#paint14_linear_1163_107531)"/>
    <path d="M17.2812 32.7272C16.4896 32.7272 15.8438 33.373 15.8438 34.1647C15.8438 34.9563 16.4896 35.5813 17.2812 35.5813L19.4898 35.5814V32.7272L17.2812 32.7272Z" fill="url(#paint15_linear_1163_107531)"/>
  </g>
  <defs>
    <filter id="filter0_d_1163_107531" x="0.84375" y="0.0605469" width="75.3125" height="71.6665" filterUnits="userSpaceOnUse" color-interpolation-filters="sRGB">
      <feFlood flood-opacity="0" result="BackgroundImageFix"/>
      <feColorMatrix in="SourceAlpha" type="matrix" values="0 0 0 0 0 0 0 0 0 0 0 0 0 0 0 0 0 0 127 0" result="hardAlpha"/>
      <feOffset/>
      <feGaussianBlur stdDeviation="7.5"/>
      <feComposite in2="hardAlpha" operator="out"/>
      <feColorMatrix type="matrix" values="0 0 0 0 0 0 0 0 0 0 0 0 0 0 0 0 0 0 0.03 0"/>
      <feBlend mode="normal" in2="BackgroundImageFix" result="effect1_dropShadow_1163_107531"/>
      <feBlend mode="normal" in="SourceGraphic" in2="effect1_dropShadow_1163_107531" result="shape"/>
    </filter>
    <linearGradient id="paint0_linear_1163_107531" x1="15.8438" y1="35.8939" x2="86.1014" y2="35.8939" gradientUnits="userSpaceOnUse">
      <stop stop-color="#FCA311"/>
      <stop offset="1" stop-color="#F9D423"/>
    </linearGradient>
    <linearGradient id="paint1_linear_1163_107531" x1="15.8438" y1="35.8939" x2="139.805" y2="35.8939" gradientUnits="userSpaceOnUse">
      <stop stop-color="#FCA311"/>
      <stop offset="1" stop-color="#F9D423"/>
    </linearGradient>
    <linearGradient id="paint2_linear_1163_107531" x1="15.8438" y1="35.8939" x2="86.1014" y2="35.8939" gradientUnits="userSpaceOnUse">
      <stop stop-color="#FCA311"/>
      <stop offset="1" stop-color="#F9D423"/>
    </linearGradient>
    <linearGradient id="paint3_linear_1163_107531" x1="15.8438" y1="35.8939" x2="139.805" y2="35.8939" gradientUnits="userSpaceOnUse">
      <stop stop-color="#FCA311"/>
      <stop offset="1" stop-color="#F9D423"/>
    </linearGradient>
    <linearGradient id="paint4_linear_1163_107531" x1="15.8438" y1="35.8939" x2="86.1014" y2="35.8939" gradientUnits="userSpaceOnUse">
      <stop stop-color="#FCA311"/>
      <stop offset="1" stop-color="#F9D423"/>
    </linearGradient>
    <linearGradient id="paint5_linear_1163_107531" x1="15.8438" y1="35.8939" x2="139.805" y2="35.8939" gradientUnits="userSpaceOnUse">
      <stop stop-color="#FCA311"/>
      <stop offset="1" stop-color="#F9D423"/>
    </linearGradient>
    <linearGradient id="paint6_linear_1163_107531" x1="15.8438" y1="35.8939" x2="86.1014" y2="35.8939" gradientUnits="userSpaceOnUse">
      <stop stop-color="#FCA311"/>
      <stop offset="1" stop-color="#F9D423"/>
    </linearGradient>
    <linearGradient id="paint7_linear_1163_107531" x1="15.8438" y1="35.8939" x2="139.805" y2="35.8939" gradientUnits="userSpaceOnUse">
      <stop stop-color="#FCA311"/>
      <stop offset="1" stop-color="#F9D423"/>
    </linearGradient>
    <linearGradient id="paint8_linear_1163_107531" x1="15.8438" y1="35.8939" x2="86.1014" y2="35.8939" gradientUnits="userSpaceOnUse">
      <stop stop-color="#FCA311"/>
      <stop offset="1" stop-color="#F9D423"/>
    </linearGradient>
    <linearGradient id="paint9_linear_1163_107531" x1="15.8438" y1="35.8939" x2="139.805" y2="35.8939" gradientUnits="userSpaceOnUse">
      <stop stop-color="#FCA311"/>
      <stop offset="1" stop-color="#F9D423"/>
    </linearGradient>
    <linearGradient id="paint10_linear_1163_107531" x1="15.8438" y1="35.8939" x2="86.1014" y2="35.8939" gradientUnits="userSpaceOnUse">
      <stop stop-color="#FCA311"/>
      <stop offset="1" stop-color="#F9D423"/>
    </linearGradient>
    <linearGradient id="paint11_linear_1163_107531" x1="15.8438" y1="35.8939" x2="139.805" y2="35.8939" gradientUnits="userSpaceOnUse">
      <stop stop-color="#FCA311"/>
      <stop offset="1" stop-color="#F9D423"/>
    </linearGradient>
    <linearGradient id="paint12_linear_1163_107531" x1="15.8438" y1="35.8939" x2="86.1014" y2="35.8939" gradientUnits="userSpaceOnUse">
      <stop stop-color="#FCA311"/>
      <stop offset="1" stop-color="#F9D423"/>
    </linearGradient>
    <linearGradient id="paint13_linear_1163_107531" x1="15.8438" y1="35.8939" x2="139.805" y2="35.8939" gradientUnits="userSpaceOnUse">
      <stop stop-color="#FCA311"/>
      <stop offset="1" stop-color="#F9D423"/>
    </linearGradient>
    <linearGradient id="paint14_linear_1163_107531" x1="15.8438" y1="35.8939" x2="86.1014" y2="35.8939" gradientUnits="userSpaceOnUse">
      <stop stop-color="#FCA311"/>
      <stop offset="1" stop-color="#F9D423"/>
    </linearGradient>
    <linearGradient id="paint15_linear_1163_107531" x1="15.8438" y1="35.8939" x2="139.805" y2="35.8939" gradientUnits="userSpaceOnUse">
      <stop stop-color="#FCA311"/>
      <stop offset="1" stop-color="#F9D423"/>
    </linearGradient>
  </defs>
</svg>